<svg width="242" height="277" viewBox="0 0 242 277" fill="none" xmlns="http://www.w3.org/2000/svg">
<path d="M206.394 185.598V96.0979L185.894 111.098V172.598L206.394 185.598Z" fill="black" stroke="black"/>
<path d="M26.3944 222.598V201.598L47.3944 186.098V213.098L67.3944 225.598V170.098L87.3944 154.098V262.598L26.3944 222.598Z" fill="black" stroke="black"/>
<path d="M103.894 133.098L104.707 131.837L103.834 131.274L103 131.894L103.894 133.098ZM126.394 147.598L125.582 148.859L126.465 149.428L127.301 148.793L126.394 147.598ZM241.88 61.3017C241.993 60.481 241.419 59.7244 240.598 59.6118L227.223 57.7773C226.403 57.6648 225.646 58.2389 225.534 59.0596C225.421 59.8803 225.995 60.6369 226.816 60.7495L238.704 62.3801L237.074 74.2688C236.961 75.0896 237.535 75.8462 238.356 75.9587C239.177 76.0713 239.933 75.4972 240.046 74.6765L241.88 61.3017ZM0.894409 209.598L1.78879 210.802L104.789 134.302L103.894 133.098L103 131.894L3.08156e-05 208.394L0.894409 209.598ZM103.894 133.098L103.082 134.359L125.582 148.859L126.394 147.598L127.207 146.337L104.707 131.837L103.894 133.098ZM126.394 147.598L127.301 148.793L241.301 62.2928L240.394 61.0979L239.488 59.9029L125.488 146.403L126.394 147.598Z" fill="#BB9A45"/>
<path d="M87.3944 134.098L67.3944 149.598V104.598L26.3944 80.0979V59.5979L115.894 0.59787L206.394 59.5979V78.0979L185.894 92.5979V69.5979L125.394 31.0979V136.598L105.394 123.098V31.0979L46.3944 69.5979L87.3944 95.5979V134.098Z" fill="black" stroke="black"/>
<path d="M26.3944 177.598V101.098L47.3944 115.098V162.598L26.3944 177.598Z" fill="black" stroke="black"/>
<path d="M149.894 119.598L150.028 71.0979L169.528 83.5979V104.098L149.894 119.598Z" fill="black" stroke="black"/>
<path d="M206.394 196.098L137.894 149.598L125.894 158.598L105.394 147.098V269.098L115.894 275.598L206.394 217.098V196.098Z" fill="black"/>
<path d="M185.894 210.598L125.894 172.098V249.098L185.894 210.598Z" fill="white"/>
<path d="M206.394 196.098L137.894 149.598L125.894 158.598L105.394 147.098V269.098L115.894 275.598L206.394 217.098V196.098Z" stroke="black"/>
<path d="M185.894 210.598L125.894 172.098V249.098L185.894 210.598Z" stroke="black"/>
<path d="M169.626 126.098L149.894 141.598V247.098L169.894 233.598L169.626 126.098Z" fill="black" stroke="black"/>
</svg>
